# xmcd
#
# Track frame offsets:
#	150
#	17558
#	33621
#	52312
#	72844
#	89743
#	99717
#	116404
#	135263
#	158182
#
# Disc length: 2356 seconds
#
# Revision: 0
# Processed by: cddbd v1.5.2PL0 Copyright (c) Steve Scherf et al.
# Submitted via: dBpowerAMP V4.0
#
DISCID=8709320a
DTITLE=The Juke Hounds - Low Man On the Totem Pole
DYEAR=2012
DGENRE=Blues
TTITLE0=01.Wrong Side of Town
TTITLE1=02.Wallet
TTITLE2=03.Can't Replay Life
TTITLE3=04.Forgiving Guy
TTITLE4=05.Don't Stop
TTITLE5=06.Bang Bang
TTITLE6=07.Nothin's Turned Out
TTITLE7=08.Them Changes
TTITLE8=09.Midnight Train
TTITLE9=10.Dust My Broom
EXTD=
EXTT0=
EXTT1=
EXTT2=
EXTT3=
EXTT4=
EXTT5=
EXTT6=
EXTT7=
EXTT8=
EXTT9=
PLAYORDER=
